<svg width="36" height="33" viewBox="0 0 36 33" fill="none" xmlns="http://www.w3.org/2000/svg">
<rect width="36" height="33" rx="11" fill="#78EB7B"/>
<path d="M5.5665 18.7009C5.43629 18.831 5.333 18.9854 5.26252 19.1554C5.19204 19.3254 5.15576 19.5076 5.15576 19.6916C5.15576 19.8756 5.19204 20.0579 5.26252 20.2279C5.333 20.3979 5.43629 20.5523 5.5665 20.6823L12.287 27.4042C12.8347 27.9505 13.7208 27.9505 14.2685 27.4042L31.4334 10.2379C31.696 9.97533 31.8435 9.61919 31.8435 9.24785C31.8435 8.8765 31.696 8.52037 31.4334 8.25779L28.7726 5.59695C28.51 5.33437 28.1539 5.18686 27.7825 5.18686C27.4112 5.18686 27.055 5.33437 26.7925 5.59695L13.2778 19.1117L10.2075 16.0401C9.94466 15.7774 9.58831 15.6299 9.21675 15.6299C8.8452 15.6299 8.48885 15.7774 8.22604 16.0401L5.5665 18.7009Z" fill="#78EB7B"/>
<path d="M13.2777 23.174L29.8149 6.63813L28.7699 5.59317C28.5071 5.33052 28.1508 5.18297 27.7792 5.18297C27.4077 5.18297 27.0513 5.33052 26.7885 5.59317L13.2777 19.1118L10.2074 16.0402C10.0774 15.91 9.92293 15.8067 9.75294 15.7362C9.58294 15.6657 9.40072 15.6294 9.2167 15.6294C9.03267 15.6294 8.85045 15.6657 8.68046 15.7362C8.51046 15.8067 8.35603 15.91 8.22599 16.0402L7.18103 17.0851L13.2777 23.174Z" fill="#C9F7CA"/>
<path d="M5.5665 18.7009C5.43629 18.831 5.333 18.9854 5.26252 19.1554C5.19204 19.3254 5.15576 19.5076 5.15576 19.6916C5.15576 19.8756 5.19204 20.0579 5.26252 20.2279C5.333 20.3979 5.43629 20.5523 5.5665 20.6823L12.287 27.4042C12.8347 27.9505 13.7208 27.9505 14.2685 27.4042L31.4334 10.2379C31.696 9.97533 31.8435 9.61919 31.8435 9.24785C31.8435 8.8765 31.696 8.52037 31.4334 8.25779L28.7726 5.59695C28.51 5.33437 28.1539 5.18686 27.7825 5.18686C27.4112 5.18686 27.055 5.33437 26.7925 5.59695L13.2778 19.1117L10.2075 16.0401C9.94466 15.7774 9.58831 15.6299 9.21675 15.6299C8.8452 15.6299 8.48885 15.7774 8.22604 16.0401L5.5665 18.7009Z" stroke="#191919" stroke-linecap="round" stroke-linejoin="round"/>
</svg>
